<svg xmlns="http://www.w3.org/2000/svg" viewBox="0 0 100 100">
  <circle cx="50" cy="50" r="45" fill="#2563EB"/>
  <g fill="#FFFFFF">
    <path d="M50 20 L55 35 L50 50 L45 35 Z"/>
    <path d="M80 50 L65 55 L50 50 L65 45 Z"/>
    <path d="M50 80 L55 65 L50 50 L45 65 Z"/>
    <path d="M20 50 L35 55 L50 50 L35 45 Z"/>
    <path d="M68 32 L60 42 L50 50 L56 37 Z"/>
    <path d="M68 68 L60 58 L50 50 L56 63 Z"/>
    <path d="M32 68 L40 58 L50 50 L44 63 Z"/>
    <path d="M32 32 L40 42 L50 50 L44 37 Z"/>
    <circle cx="50" cy="50" r="8"/>
  </g>
</svg>
